<svg xmlns="http://www.w3.org/2000/svg" xmlns:xlink="http://www.w3.org/1999/xlink" viewBox="0 0 30.1 29"><defs><style>.cls-1{fill:none;}.cls-2{fill:#fffce1;}.cls-3{fill:#bb7a38;}.cls-4{clip-path:url(#clip-path);}</style><clipPath id="clip-path"><circle class="cls-1" cx="15.05" cy="14.5" r="14"/></clipPath></defs><title>COB-BSBA-Business_Administration</title><g id="Layer_2" data-name="Layer 2"><g id="Layer_1-2" data-name="Layer 1"><circle class="cls-2" cx="15.05" cy="14.5" r="14"/><path class="cls-3" d="M15.05,29a14.5,14.5,0,1,1,14.5-14.5A14.51,14.51,0,0,1,15.05,29Zm0-28a13.5,13.5,0,1,0,13.5,13.5A13.52,13.52,0,0,0,15.05,1Z"/><g class="cls-4"><path class="cls-3" d="M22.12,8.74,26.44,15l-1.29,1.29a6.15,6.15,0,0,1-2,3.24c-.62.61-.49.3-1.72,1.47-4.78,4.5-5.13,4-5.13,4l5.77-6.19-7-7.27V8.39l4.65-.25,1.69,1.17Z"/><polygon class="cls-3" points="7.32 7.64 2.44 14.75 0 12.82 3.66 4.74 7.32 7.64"/><polygon class="cls-3" points="22.78 7.64 27.66 14.75 30.1 12.82 26.44 4.74 22.78 7.64"/><path class="cls-3" d="M13.73,8.5l-4,4.74,1,.67A1,1,0,0,0,12,13.82l4.33-3.59Z"/><path class="cls-2" d="M15.49,26a1.38,1.38,0,0,1-.94-.37l-3-2.78a1.38,1.38,0,0,1,.94-2.38,1.36,1.36,0,0,1,.94.37l3,2.78a1.42,1.42,0,0,1,.43,1,1.39,1.39,0,0,1-.37,1A1.41,1.41,0,0,1,15.49,26Z"/><path class="cls-3" d="M12.54,20.88a1,1,0,0,1,.68.27l3,2.78a1,1,0,0,1,0,1.41,1,1,0,0,1-.73.32,1,1,0,0,1-.68-.28l-3-2.78a1,1,0,0,1,.69-1.72m0-.75h0a1.77,1.77,0,0,0-1.28.55,1.74,1.74,0,0,0-.47,1.25,1.71,1.71,0,0,0,.55,1.22l2.95,2.78a1.76,1.76,0,0,0,1.2.48,1.78,1.78,0,0,0,1.28-.56,1.75,1.75,0,0,0-.08-2.47l-3-2.78a1.73,1.73,0,0,0-1.2-.47Z"/><path class="cls-2" d="M18,24.59a1.38,1.38,0,0,1-1-.37L13.68,21a1.39,1.39,0,0,1-.06-1.95,1.41,1.41,0,0,1,1-.43,1.38,1.38,0,0,1,1,.37L19,22.22A1.37,1.37,0,0,1,18,24.59Z"/><path class="cls-3" d="M14.62,19a1,1,0,0,1,.69.27l3.38,3.18a1,1,0,0,1,0,1.41,1,1,0,0,1-.73.32,1,1,0,0,1-.69-.27l-3.38-3.19a1,1,0,0,1,0-1.41,1,1,0,0,1,.72-.31m0-.75h0a1.75,1.75,0,0,0-1.2,3l3.39,3.18A1.72,1.72,0,0,0,18,25a1.75,1.75,0,0,0,1.2-3l-3.39-3.18a1.71,1.71,0,0,0-1.2-.47Z"/><path class="cls-2" d="M20.24,22.92a1.39,1.39,0,0,1-.94-.38L15.49,19A1.38,1.38,0,0,1,15.43,17a1.39,1.39,0,0,1,1-.43,1.36,1.36,0,0,1,.94.37l3.81,3.59a1.35,1.35,0,0,1,.44,1,1.32,1.32,0,0,1-.38,1A1.36,1.36,0,0,1,20.24,22.92Z"/><path class="cls-3" d="M16.43,17a1,1,0,0,1,.69.28l3.81,3.58a1,1,0,0,1,0,1.42,1,1,0,0,1-.73.31,1,1,0,0,1-.68-.27l-3.81-3.59a1,1,0,0,1-.05-1.41,1,1,0,0,1,.73-.32m0-.75h0a1.75,1.75,0,0,0-1.27.55,1.75,1.75,0,0,0,.07,2.48L19,22.81a1.74,1.74,0,0,0,1.2.48,1.77,1.77,0,0,0,1.28-.55,1.75,1.75,0,0,0-.08-2.47l-3.81-3.59a1.74,1.74,0,0,0-1.2-.48Z"/><path class="cls-2" d="M22,20.75a1.36,1.36,0,0,1-.94-.37l-3.92-3.69a1.35,1.35,0,0,1-.44-1,1.32,1.32,0,0,1,.38-1,1.35,1.35,0,0,1,1-.44,1.39,1.39,0,0,1,.94.38l3.92,3.69A1.37,1.37,0,0,1,22,20.75Z"/><path class="cls-3" d="M18.06,14.69a1,1,0,0,1,.68.27l3.92,3.69a1,1,0,0,1,.05,1.41,1,1,0,0,1-.73.32,1,1,0,0,1-.69-.27l-3.92-3.69a1,1,0,0,1,0-1.42,1,1,0,0,1,.73-.31m0-.75h0a1.77,1.77,0,0,0-1.28.55A1.75,1.75,0,0,0,16.86,17l3.92,3.69a1.74,1.74,0,0,0,2.47-.07,1.74,1.74,0,0,0-.07-2.47l-3.92-3.7a1.77,1.77,0,0,0-1.2-.47Z"/><path class="cls-3" d="M9.17,20.48a12,12,0,0,0-1.23-1.05,3.13,3.13,0,0,1-.47-.4,5.75,5.75,0,0,1-1.78-2.79l0-.26-.19-.19-.85-.85L8.15,9.82l.11.08.38.3L9.07,10l1.52-1.08,3.72.25v2.75l.55-.45.2.12V8.39L10.4,8.14,8.71,9.31,8,8.74,3.66,15,5,16.32a6.07,6.07,0,0,0,2,3.24c.61.61.48.3,1.72,1.47,3.89,3.67,4.84,4,5.06,4l-.29-.95A32.45,32.45,0,0,1,9.17,20.48Z"/><polygon class="cls-2" points="10.26 21.49 10.87 22.06 14.04 24.65 14.04 21.9 14.82 22.63 15.26 22 14.49 21.29 15.78 19.75 16.1 20.04 16.53 19.42 16.32 19.22 17.73 17.81 18.29 18.3 18.73 17.68 18.34 17.34 19.5 15.69 18.92 15.14 14.86 11.44 10.26 21.49"/><path class="cls-3" d="M16.87,24.41a.35.35,0,0,1-.26-.1l-3.15-3A.38.38,0,0,1,14,20.8l3.14,3a.38.38,0,0,1,0,.53A.36.36,0,0,1,16.87,24.41Z"/><path class="cls-3" d="M19.3,22.92a.4.4,0,0,1-.26-.11l-3.53-3.33a.37.37,0,1,1,.51-.54l3.54,3.33a.37.37,0,0,1,0,.53A.36.36,0,0,1,19.3,22.92Z"/><path class="cls-3" d="M21.33,21a.36.36,0,0,1-.26-.11l-3.8-3.57a.37.37,0,1,1,.52-.54l3.79,3.57a.38.38,0,0,1,0,.53A.39.39,0,0,1,21.33,21Z"/></g></g></g></svg>